<svg width="48" height="48" viewBox="0 0 48 48" fill="none" xmlns="http://www.w3.org/2000/svg">
<path d="M21.4799 5.60485C22.1089 5.23193 22.8911 5.23193 23.5201 5.60485L37.5415 13.9189C38.149 14.2791 38.5215 14.933 38.5215 15.6393V32.3607C38.5215 33.067 38.149 33.7209 37.5415 34.0811L23.5201 42.3951C22.8911 42.7681 22.1089 42.7681 21.4799 42.3951L7.45846 34.0811C6.851 33.7209 6.47853 33.067 6.47853 32.3607V15.6393C6.47853 14.933 6.851 14.2791 7.45847 13.9189L21.4799 5.60485Z" fill="#E9E28F"/>
<line x1="21.25" y1="6.5" x2="21.25" y2="41.5" stroke="#B6ADAD" stroke-opacity="0.8" stroke-width="0.5"/>
<path d="M11.0739 17.0384C10.9025 17.0384 10.7491 16.9943 10.6136 16.9062C10.4782 16.8182 10.3712 16.6903 10.2926 16.5227C10.214 16.3551 10.1747 16.1515 10.1747 15.9119C10.1747 15.6695 10.2145 15.465 10.294 15.2983C10.3745 15.1307 10.483 15.0043 10.6193 14.919C10.7557 14.8329 10.9077 14.7898 11.0753 14.7898C11.2031 14.7898 11.3082 14.8116 11.3906 14.8551C11.473 14.8977 11.5384 14.9493 11.5866 15.0099C11.6349 15.0696 11.6723 15.1259 11.6989 15.179H11.7202V14.0909H12.2358V17H11.7301V16.6562H11.6989C11.6723 16.7093 11.634 16.7656 11.5838 16.8253C11.5336 16.884 11.4673 16.9342 11.3849 16.9759C11.3026 17.0175 11.1989 17.0384 11.0739 17.0384ZM11.2173 16.6165C11.3262 16.6165 11.419 16.5871 11.4957 16.5284C11.5724 16.4687 11.6307 16.3859 11.6705 16.2798C11.7102 16.1738 11.7301 16.0502 11.7301 15.9091C11.7301 15.768 11.7102 15.6454 11.6705 15.5412C11.6316 15.437 11.5739 15.3561 11.4972 15.2983C11.4214 15.2405 11.3281 15.2116 11.2173 15.2116C11.1027 15.2116 11.0071 15.2415 10.9304 15.3011C10.8537 15.3608 10.7959 15.4432 10.7571 15.5483C10.7183 15.6534 10.6989 15.7737 10.6989 15.9091C10.6989 16.0455 10.7183 16.1671 10.7571 16.2741C10.7969 16.3802 10.8551 16.464 10.9318 16.5256C11.0095 16.5862 11.1046 16.6165 11.2173 16.6165ZM12.7837 17V14.8182H13.2979V17H12.7837ZM13.0423 14.5085C12.9608 14.5085 12.8907 14.4815 12.832 14.4276C12.7733 14.3726 12.744 14.3068 12.744 14.2301C12.744 14.1525 12.7733 14.0866 12.832 14.0327C12.8907 13.9777 12.9608 13.9503 13.0423 13.9503C13.1246 13.9503 13.1947 13.9777 13.2525 14.0327C13.3112 14.0866 13.3406 14.1525 13.3406 14.2301C13.3406 14.3068 13.3112 14.3726 13.2525 14.4276C13.1947 14.4815 13.1246 14.5085 13.0423 14.5085ZM14.6364 17.0384C14.465 17.0384 14.3116 16.9943 14.1761 16.9062C14.0407 16.8182 13.9337 16.6903 13.8551 16.5227C13.7765 16.3551 13.7372 16.1515 13.7372 15.9119C13.7372 15.6695 13.777 15.465 13.8565 15.2983C13.937 15.1307 14.0455 15.0043 14.1818 14.919C14.3182 14.8329 14.4702 14.7898 14.6378 14.7898C14.7656 14.7898 14.8707 14.8116 14.9531 14.8551C15.0355 14.8977 15.1009 14.9493 15.1491 15.0099C15.1974 15.0696 15.2348 15.1259 15.2614 15.179H15.2827V14.0909H15.7983V17H15.2926V16.6562H15.2614C15.2348 16.7093 15.1965 16.7656 15.1463 16.8253C15.0961 16.884 15.0298 16.9342 14.9474 16.9759C14.8651 17.0175 14.7614 17.0384 14.6364 17.0384ZM14.7798 16.6165C14.8887 16.6165 14.9815 16.5871 15.0582 16.5284C15.1349 16.4687 15.1932 16.3859 15.233 16.2798C15.2727 16.1738 15.2926 16.0502 15.2926 15.9091C15.2926 15.768 15.2727 15.6454 15.233 15.5412C15.1941 15.437 15.1364 15.3561 15.0597 15.2983C14.9839 15.2405 14.8906 15.2116 14.7798 15.2116C14.6652 15.2116 14.5696 15.2415 14.4929 15.3011C14.4162 15.3608 14.3584 15.4432 14.3196 15.5483C14.2808 15.6534 14.2614 15.7737 14.2614 15.9091C14.2614 16.0455 14.2808 16.1671 14.3196 16.2741C14.3594 16.3802 14.4176 16.464 14.4943 16.5256C14.572 16.5862 14.6671 16.6165 14.7798 16.6165ZM16.7965 17L16.18 14.8182H16.7042L17.0877 16.3523H17.1076L17.4996 14.8182H18.0181L18.4102 16.3438H18.4315L18.8093 14.8182H19.3349L18.717 17H18.1815L17.7724 15.5256H17.7425L17.3335 17H16.7965ZM19.6939 17V14.8182H20.1925V15.1818H20.2152C20.255 15.0559 20.3232 14.9588 20.4197 14.8906C20.5173 14.8215 20.6286 14.7869 20.7536 14.7869C20.782 14.7869 20.8137 14.7884 20.8487 14.7912C20.8847 14.7931 20.9145 14.7964 20.9382 14.8011V15.2741C20.9164 15.2666 20.8819 15.2599 20.8345 15.2543C20.7881 15.2476 20.7431 15.2443 20.6996 15.2443C20.6058 15.2443 20.5215 15.2647 20.4467 15.3054C20.3729 15.3452 20.3146 15.4006 20.272 15.4716C20.2294 15.5426 20.2081 15.6245 20.2081 15.7173V17H19.6939ZM21.8686 17.044C21.7304 17.044 21.6058 17.0194 21.495 16.9702C21.3852 16.92 21.2981 16.8461 21.2337 16.7486C21.1702 16.651 21.1385 16.5308 21.1385 16.3878C21.1385 16.2647 21.1612 16.1629 21.2067 16.0824C21.2521 16.0019 21.3142 15.9375 21.3928 15.8892C21.4714 15.8409 21.5599 15.8045 21.6584 15.7798C21.7578 15.7543 21.8606 15.7358 21.9666 15.7244C22.0945 15.7112 22.1982 15.6993 22.2777 15.6889C22.3572 15.6776 22.415 15.6605 22.451 15.6378C22.4879 15.6141 22.5064 15.5777 22.5064 15.5284V15.5199C22.5064 15.4129 22.4747 15.33 22.4112 15.2713C22.3478 15.2126 22.2564 15.1832 22.1371 15.1832C22.0111 15.1832 21.9112 15.2107 21.8374 15.2656C21.7644 15.3205 21.7152 15.3854 21.6896 15.4602L21.2095 15.392C21.2474 15.2595 21.3099 15.1487 21.397 15.0597C21.4841 14.9697 21.5907 14.9025 21.7166 14.858C21.8426 14.8125 21.9818 14.7898 22.1342 14.7898C22.2393 14.7898 22.344 14.8021 22.4482 14.8267C22.5523 14.8513 22.6475 14.892 22.7337 14.9489C22.8198 15.0047 22.889 15.081 22.9411 15.1776C22.9941 15.2741 23.0206 15.3949 23.0206 15.5398V17H22.5263V16.7003H22.5092C22.478 16.7609 22.4339 16.8177 22.3771 16.8707C22.3213 16.9228 22.2507 16.965 22.1655 16.9972C22.0812 17.0284 21.9822 17.044 21.8686 17.044ZM22.0021 16.6662C22.1054 16.6662 22.1948 16.6458 22.2706 16.6051C22.3464 16.5634 22.4046 16.5085 22.4453 16.4403C22.487 16.3722 22.5078 16.2978 22.5078 16.2173V15.9602C22.4917 15.9735 22.4643 15.9858 22.4254 15.9972C22.3875 16.0085 22.3449 16.0185 22.2976 16.027C22.2502 16.0355 22.2034 16.0431 22.157 16.0497C22.1106 16.0563 22.0703 16.062 22.0362 16.0668C21.9595 16.0772 21.8909 16.0942 21.8303 16.1179C21.7696 16.1416 21.7218 16.1747 21.6868 16.2173C21.6518 16.259 21.6342 16.313 21.6342 16.3793C21.6342 16.474 21.6688 16.5455 21.7379 16.5938C21.8071 16.642 21.8951 16.6662 22.0021 16.6662ZM23.5376 17.8182V14.8182H24.0433V15.179H24.0732C24.0997 15.1259 24.1371 15.0696 24.1854 15.0099C24.2337 14.9493 24.299 14.8977 24.3814 14.8551C24.4638 14.8116 24.5689 14.7898 24.6967 14.7898C24.8653 14.7898 25.0173 14.8329 25.1527 14.919C25.2891 15.0043 25.397 15.1307 25.4766 15.2983C25.5571 15.465 25.5973 15.6695 25.5973 15.9119C25.5973 16.1515 25.558 16.3551 25.4794 16.5227C25.4008 16.6903 25.2938 16.8182 25.1584 16.9062C25.023 16.9943 24.8696 17.0384 24.6982 17.0384C24.5732 17.0384 24.4695 17.0175 24.3871 16.9759C24.3047 16.9342 24.2384 16.884 24.1882 16.8253C24.139 16.7656 24.1006 16.7093 24.0732 16.6562H24.0518V17.8182H23.5376ZM24.0419 15.9091C24.0419 16.0502 24.0618 16.1738 24.1016 16.2798C24.1423 16.3859 24.2005 16.4687 24.2763 16.5284C24.353 16.5871 24.4458 16.6165 24.5547 16.6165C24.6683 16.6165 24.7635 16.5862 24.8402 16.5256C24.9169 16.464 24.9747 16.3802 25.0135 16.2741C25.0533 16.1671 25.0732 16.0455 25.0732 15.9091C25.0732 15.7737 25.0537 15.6534 25.0149 15.5483C24.9761 15.4432 24.9183 15.3608 24.8416 15.3011C24.7649 15.2415 24.6693 15.2116 24.5547 15.2116C24.4448 15.2116 24.3516 15.2405 24.2749 15.2983C24.1982 15.3561 24.1399 15.437 24.1001 15.5412C24.0613 15.6454 24.0419 15.768 24.0419 15.9091ZM26.0376 17.8182V14.8182H26.5433V15.179H26.5732C26.5997 15.1259 26.6371 15.0696 26.6854 15.0099C26.7337 14.9493 26.799 14.8977 26.8814 14.8551C26.9638 14.8116 27.0689 14.7898 27.1967 14.7898C27.3653 14.7898 27.5173 14.8329 27.6527 14.919C27.7891 15.0043 27.897 15.1307 27.9766 15.2983C28.0571 15.465 28.0973 15.6695 28.0973 15.9119C28.0973 16.1515 28.058 16.3551 27.9794 16.5227C27.9008 16.6903 27.7938 16.8182 27.6584 16.9062C27.523 16.9943 27.3696 17.0384 27.1982 17.0384C27.0732 17.0384 26.9695 17.0175 26.8871 16.9759C26.8047 16.9342 26.7384 16.884 26.6882 16.8253C26.639 16.7656 26.6006 16.7093 26.5732 16.6562H26.5518V17.8182H26.0376ZM26.5419 15.9091C26.5419 16.0502 26.5618 16.1738 26.6016 16.2798C26.6423 16.3859 26.7005 16.4687 26.7763 16.5284C26.853 16.5871 26.9458 16.6165 27.0547 16.6165C27.1683 16.6165 27.2635 16.5862 27.3402 16.5256C27.4169 16.464 27.4747 16.3802 27.5135 16.2741C27.5533 16.1671 27.5732 16.0455 27.5732 15.9091C27.5732 15.7737 27.5537 15.6534 27.5149 15.5483C27.4761 15.4432 27.4183 15.3608 27.3416 15.3011C27.2649 15.2415 27.1693 15.2116 27.0547 15.2116C26.9448 15.2116 26.8516 15.2405 26.7749 15.2983C26.6982 15.3561 26.6399 15.437 26.6001 15.5412C26.5613 15.6454 26.5419 15.768 26.5419 15.9091ZM29.5036 17.0426C29.2848 17.0426 29.0959 16.9972 28.9368 16.9062C28.7786 16.8144 28.657 16.6847 28.5717 16.517C28.4865 16.3485 28.4439 16.1501 28.4439 15.9219C28.4439 15.6974 28.4865 15.5005 28.5717 15.331C28.6579 15.1605 28.7782 15.0279 28.9325 14.9332C29.0869 14.8376 29.2682 14.7898 29.4766 14.7898C29.611 14.7898 29.7379 14.8116 29.8572 14.8551C29.9775 14.8977 30.0836 14.964 30.1754 15.054C30.2682 15.1439 30.3411 15.2585 30.3942 15.3977C30.4472 15.536 30.4737 15.7008 30.4737 15.892V16.0497H28.6854V15.7031H29.9808C29.9799 15.6046 29.9586 15.517 29.9169 15.4403C29.8752 15.3627 29.817 15.3016 29.7422 15.2571C29.6683 15.2126 29.5821 15.1903 29.4837 15.1903C29.3786 15.1903 29.2862 15.2159 29.2067 15.267C29.1271 15.3172 29.0651 15.3835 29.0206 15.4659C28.977 15.5473 28.9548 15.6368 28.9538 15.7344V16.0369C28.9538 16.1638 28.977 16.2727 29.0234 16.3636C29.0698 16.4536 29.1347 16.5227 29.218 16.571C29.3014 16.6184 29.3989 16.642 29.5107 16.642C29.5855 16.642 29.6532 16.6316 29.7138 16.6108C29.7744 16.589 29.8269 16.5573 29.8714 16.5156C29.916 16.474 29.9496 16.4223 29.9723 16.3608L30.4524 16.4148C30.4221 16.5417 30.3643 16.6525 30.2791 16.7472C30.1948 16.8409 30.0869 16.9138 29.9553 16.9659C29.8236 17.017 29.6731 17.0426 29.5036 17.0426ZM30.9087 17V14.8182H31.4073V15.1818H31.43C31.4698 15.0559 31.538 14.9588 31.6346 14.8906C31.7321 14.8215 31.8434 14.7869 31.9684 14.7869C31.9968 14.7869 32.0285 14.7884 32.0636 14.7912C32.0996 14.7931 32.1294 14.7964 32.1531 14.8011V15.2741C32.1313 15.2666 32.0967 15.2599 32.0494 15.2543C32.003 15.2476 31.958 15.2443 31.9144 15.2443C31.8207 15.2443 31.7364 15.2647 31.6616 15.3054C31.5877 15.3452 31.5295 15.4006 31.4869 15.4716C31.4442 15.5426 31.4229 15.6245 31.4229 15.7173V17H30.9087ZM34.2191 15.3949L33.7504 15.446C33.7371 15.3987 33.7139 15.3542 33.6808 15.3125C33.6486 15.2708 33.605 15.2372 33.5501 15.2116C33.4951 15.1861 33.4279 15.1733 33.3484 15.1733C33.2414 15.1733 33.1514 15.1965 33.0785 15.2429C33.0065 15.2893 32.971 15.3494 32.9719 15.4233C32.971 15.4867 32.9942 15.5384 33.0415 15.5781C33.0898 15.6179 33.1694 15.6506 33.2802 15.6761L33.6523 15.7557C33.8588 15.8002 34.0122 15.8707 34.1126 15.9673C34.2139 16.0639 34.265 16.1903 34.266 16.3466C34.265 16.4839 34.2248 16.6051 34.1452 16.7102C34.0666 16.8144 33.9573 16.8958 33.8171 16.9545C33.677 17.0133 33.516 17.0426 33.3342 17.0426C33.0671 17.0426 32.8522 16.9867 32.6893 16.875C32.5264 16.7623 32.4293 16.6056 32.3981 16.4048L32.8995 16.3565C32.9222 16.455 32.9705 16.5294 33.0444 16.5795C33.1183 16.6297 33.2144 16.6548 33.3327 16.6548C33.4549 16.6548 33.5529 16.6297 33.6268 16.5795C33.7016 16.5294 33.739 16.4673 33.739 16.3935C33.739 16.331 33.7148 16.2794 33.6665 16.2386C33.6192 16.1979 33.5453 16.1667 33.445 16.1449L33.0728 16.0668C32.8635 16.0232 32.7087 15.9498 32.6083 15.8466C32.5079 15.7424 32.4582 15.6108 32.4592 15.4517C32.4582 15.3172 32.4947 15.2008 32.5685 15.1023C32.6433 15.0028 32.747 14.9261 32.8796 14.8722C33.0131 14.8172 33.167 14.7898 33.3413 14.7898C33.5969 14.7898 33.7982 14.8442 33.945 14.9531C34.0927 15.062 34.1841 15.2093 34.2191 15.3949Z" fill="black"/>
<path d="M16 38L27.5 33L37.5 33" stroke="#CDC52E" stroke-width="2" stroke-linecap="round"/>
<path d="M7.49409 28.4842L21.3347 24.863L28.0774 19.596L37 25" stroke="#151343" stroke-width="2" stroke-linecap="round"/>
<path d="M9.00001 34L15 32L19.9986 30.8791" stroke="#2B808B" stroke-width="2" stroke-linecap="round"/>
<line x1="18.8939" y1="31.8939" x2="20.8939" y2="29.8939" stroke="#D92E2F" stroke-width="0.3"/>
<line x1="19.1073" y1="29.8929" x2="21.1051" y2="31.8952" stroke="#D92E2F" stroke-width="0.3"/>
</svg>
